<?xml version="1.0" standalone="no"?>
<!DOCTYPE svg PUBLIC "-//W3C//DTD SVG 20010904//EN"
 "http://www.w3.org/TR/2001/REC-SVG-20010904/DTD/svg10.dtd">
<svg version="1.0" xmlns="http://www.w3.org/2000/svg"
 width="124.000000pt" height="124.000000pt" viewBox="0 0 124.000000 124.000000"
 preserveAspectRatio="xMidYMid meet">
<metadata>
Created by potrace 1.14, written by Peter Selinger 2001-2017
</metadata>
<g transform="translate(0.000000,124.000000) scale(0.100000,-0.100000)"
fill="#000000" stroke="none">
<path d="M365 793 c-55 -10 -67 -16 -101 -45 -45 -39 -64 -82 -64 -141 0 -55
20 -104 57 -139 81 -77 225 -62 306 33 l33 38 40 -40 c55 -57 102 -79 169 -79
100 0 164 50 186 146 15 68 -1 124 -50 173 -82 82 -207 73 -300 -22 l-43 -45
-36 40 c-54 59 -134 92 -197 81z m68 -87 c35 -14 107 -83 107 -102 0 -6 -22
-32 -50 -58 -43 -40 -55 -46 -93 -46 -130 0 -155 172 -30 210 15 4 29 9 31 9
1 1 17 -5 35 -13z m437 -15 c29 -21 46 -76 36 -115 -4 -15 -19 -39 -33 -52
-52 -48 -141 -25 -200 53 l-25 32 50 50 c64 64 113 73 172 32z"/>
</g>
</svg>
